<?xml version="1.0" encoding="utf-8"?>
<?xml-stylesheet type="text/xsl" href="rss1.xsl"?>
<rss version="2.0" xmlns:atom="http://www.w3.org/2005/Atom" xmlns:content="http://purl.org/rss/1.0/modules/content/" xmlns:dc="http://purl.org/dc/elements/1.1/" xmlns:media="http://search.yahoo.com/mrss/">
<channel>
 <title>Getty</title>
 <link>http://www.gettyimg.com/</link>
 <atom:link href="http://www.gettyimg.com/" rel="self" type="application/rss+xml" />

 
                <item>
                <title><![CDATA[【Albums (lossless)】FLAC - Letto - Truth, Cry, And Lie [Deezer CD]]]></title>
                <link><![CDATA[https://sharemania.us/threads/letto-truth-cry-and-lie-deezer-cd.244054/]]></link>
                <description><![CDATA[<article>
<blockquote class="messageText SelectQuoteContainer ugc baseHtml">
Dan anda dapat mendownloadnya secara gratis disini, maka saya akan segera menerima permintaan izin akses anda. ♥️<br>
<br>
Dengan ukuran 247 mb.<br>
<br>
#Letto #TruthCry,AndLie<br>
<br>
Sumber #Deezer<br>
<br>
<div class="bbCodeBlock bbCodeCode">
<div class="type">Code:</div>
<pre>https://drive.google.com/drive/folders/13pslJUZ6vwRKAIQdoXIFF2sOQPoyzeiS</pre>
</div>
<div class="messageTextEndMarker">&nbsp;</div>
</blockquote>
</article>]]></description>
                <author><![CDATA[RadifGrande]]></author>
                </item>

                
                <item>
                <title><![CDATA[【Requests】[REQ AUD] - Ben&amp;Ben - Comets - Single (FLAC)]]></title>
                <link><![CDATA[https://sharemania.us/threads/ben-ben-comets-single-flac.244052/]]></link>
                <description><![CDATA[<article>
<blockquote class="messageText SelectQuoteContainer ugc baseHtml">
Can someone upload Ben&amp;Ben's newest single? I'm not sure if it's in hi-res, but it's from Tidal so...<br>
<br>
<a href="https://tidal.com/browse/album/359833381" target="_blank" class="externalLink" rel="nofollow">https://tidal.com/browse/album/359833381</a><br>
<a href="https://tidal.com/browse/track/359833382" target="_blank" class="externalLink" rel="nofollow">https://tidal.com/browse/track/359833382</a><br>
<br>
Big thanks!!
<div class="messageTextEndMarker">&nbsp;</div>
</blockquote>
</article>]]></description>
                <author><![CDATA[anonymus]]></author>
                </item>

                
                <item>
                <title><![CDATA[【HD Live Performances】WEB-DL - Miley Cyrus - ATTENTION Tour Movie 2160p Dolby Digital Plus (5.1)]]></title>
                <link><![CDATA[https://sharemania.us/threads/miley-cyrus-attention-tour-movie-2160p-dolby-digital-plus-5-1.244053/]]></link>
                <description><![CDATA[<article>
<blockquote class="messageText SelectQuoteContainer ugc baseHtml">
<img src="https://i.imgur.com/6mpBjWy.png" class="bbCodeImage LbImage" alt="[​IMG]" data-url="https://i.imgur.com/6mpBjWy.png" style=""> <br>
<br>
Hello everyone, today I'm posting this movie made by not so secret lab and me about Miley Cyrus ATTENTION tour. For those who want to see it again with different perspectives from each country.<br>
<br>
<b>What does this movie contain? </b><br>
<br>
4 locations (Argentina, Brazil, Chile and Los Angeles)<br>
Dolby Atmos sound (5.1) extracted from TIDAL and synchronized with the video.<br>
English and Spanish subtitles<br>
<br>
<b>Some highlights.</b><br>
<br>
Due to the fact that the audio was recorded in only one location, the synchronization with the video is not 100% correct, we apologize for that.<br>
In some moments a black screen may appear, this is due to the fact that from that moment on, the audio and video are no longer synchronized and it looks bad for the viewer.<br>
Edge Of Midnight was replaced by Midnight Sky (recorded in Argentina) by request of a person. The audio is moderately bad, even though we have improved and modified it so that it can be played in a 5.1 audio system.<br>
The subtitles may have problems when displayed on screen, we have not been able to correct that<br>
<br>
I hope I am not bothering anyone with this and if this movie is published elsewhere, please give credit to the authors.<br>
<br>
<div class="ToggleTriggerAnchor bbCodeSpoilerContainer">
<button type="button" class="button bbCodeSpoilerButton ToggleTrigger Tooltip JsOnly" data-target="> .SpoilerTarget"><span>Spoiler: <span class="SpoilerTitle">MediaInfo</span></span></button>
<div class="SpoilerTarget bbCodeSpoilerText">Format : MPEG-4<br>
Format profile : Base Media<br>
Codec ID : isom (isom/iso2/avc1/mp41)<br>
File size : 11.9 GiB<br>
Duration : 1 h 13 min<br>
Overall bit rate mode : Variable<br>
Overall bit rate : 23.1 Mb/s<br>
Frame rate : 29.970 FPS<br>
Writing application : Lavf58.76.100<br>
<br>
Video<br>
ID : 1<br>
Format : AVC<br>
Format/Info : Advanced Video Codec<br>
Format profile : High@L5.1<br>
Format settings : CABAC / 4 Ref Frames<br>
Format settings, CABAC : Yes<br>
Format settings, Reference : 4 frames<br>
Codec ID : avc1<br>
Codec ID/Info : Advanced Video Coding<br>
Duration : 1 h 13 min<br>
Source duration : 1 h 13 min<br>
Bit rate mode : Variable<br>
Bit rate : 21.9 Mb/s<br>
Maximum bit rate : 30.0 Mb/s<br>
Width : 3 840 pixels<br>
Height : 2 160 pixels<br>
Display aspect ratio : 16:9<br>
Frame rate mode : Constant<br>
Frame rate : 29.970 (30000/1001) FPS<br>
Standard : NTSC<br>
Color space : YUV<br>
Chroma subsampling : 4:2:0<br>
Bit depth : 8 bits<br>
Scan type : Progressive<br>
Bits/(Pixel*Frame) : 0.088<br>
Stream size : 11.3 GiB (95%)<br>
Source stream size : 11.3 GiB (95%)<br>
Color range : Limited<br>
Color primaries : BT.709<br>
Transfer characteristics : BT.709<br>
Matrix coefficients : BT.709<br>
mdhd_Duration : 4438968<br>
Codec configuration box : avcC<br>
<br>
Audio #1<br>
ID : 2<br>
Format : E-AC-3<br>
Format/Info : Enhanced AC-3<br>
Commercial name : Dolby Digital Plus<br>
Codec ID : ec-3<br>
Duration : 1 h 13 min<br>
Source duration : 1 h 13 min<br>
Bit rate mode : Constant<br>
Bit rate : 576 kb/s<br>
Channel(s) : 6 channels<br>
Channel layout : L R C LFE Ls Rs<br>
Sampling rate : 48.0 kHz<br>
Frame rate : 31.250 FPS (1536 SPF)<br>
Compression mode : Lossy<br>
Stream size : 305 MiB (2%)<br>
Source stream size : 305 MiB (2%)<br>
Language : English<br>
Service kind : Complete Main<br>
Default : Yes<br>
Alternate group : 1<br>
mdhd_Duration : 4439009<br>
<br>
Audio #2<br>
ID : 3<br>
Format : AAC LC<br>
Format/Info : Advanced Audio Codec Low Complexity<br>
Codec ID : mp4a-40-2<br>
Duration : 1 h 13 min<br>
Source duration : 1 h 13 min<br>
Bit rate mode : Constant<br>
Bit rate : 576 kb/s<br>
Channel(s) : 2 channels<br>
Channel layout : L R<br>
Sampling rate : 48.0 kHz<br>
Frame rate : 46.875 FPS (1024 SPF)<br>
Compression mode : Lossy<br>
Stream size : 305 MiB (2%)<br>
Source stream size : 305 MiB (2%)<br>
Language : English<br>
Default : Yes<br>
Alternate group : 2<br>
mdhd_Duration : 4439010</div>
</div>.<br>
<br>
<div style="text-align: center"><b>Download<br>
<div class="bbCodeBlock bbCodeVfcHH HiddenContent">
<div class="attribution type">Hidden Content:</div>
<blockquote>You must reply before you can see the hidden data contained here.</blockquote>
</div></b>​</div>
<div class="messageTextEndMarker">&nbsp;</div>
</blockquote>
</article>]]></description>
                <author><![CDATA[narxerino]]></author>
                </item>

                </channel></rss>